<svg width="20" height="20" viewBox="0 0 20 20" fill="none" xmlns="http://www.w3.org/2000/svg">
<path d="M12.1145 18.0721C12.1461 18.151 12.2012 18.2184 12.2722 18.2651C12.3432 18.3118 12.4269 18.3357 12.5118 18.3335C12.5968 18.3313 12.6791 18.3032 12.7477 18.2529C12.8162 18.2026 12.8677 18.1325 12.8953 18.0521L18.312 2.21879C18.3386 2.14495 18.3437 2.06504 18.3266 1.98842C18.3096 1.91179 18.271 1.84161 18.2155 1.7861C18.16 1.73059 18.0898 1.69203 18.0132 1.67495C17.9366 1.65786 17.8566 1.66295 17.7828 1.68962L1.94947 7.10629C1.86905 7.13387 1.79899 7.18539 1.7487 7.25393C1.69841 7.32247 1.67028 7.40476 1.66811 7.48975C1.66593 7.57474 1.6898 7.65836 1.73652 7.72939C1.78324 7.80042 1.85057 7.85546 1.92947 7.88712L8.53781 10.5371C8.74671 10.6208 8.93652 10.7458 9.09578 10.9048C9.25504 11.0638 9.38046 11.2534 9.46447 11.4621L12.1145 18.0721Z" stroke="#0284C7" stroke-width="1.66667" stroke-linecap="round" stroke-linejoin="round"/>
<path d="M18.2104 1.78906L9.09375 10.9049" stroke="#0284C7" stroke-width="1.66667" stroke-linecap="round" stroke-linejoin="round"/>
</svg>
